<svg enable-background="new 0 0 472.7 72.2" viewBox="0 0 472.7 72.2" xmlns="http://www.w3.org/2000/svg"><g fill="#fff"><path d="m261.1 70.2v-50.5l12.1 4.7v45.8zm12.1-60.7v9.9l-12.1-4.7v-5.2z"/><path d="m53.2 70.2h-7.6l-9.6-32.7-9.8 32.8h-7.5l-18-50.6h13l9 30.8 8.5-30.8h9.7l8.3 30.8 9.2-30.8h13z"/><path d="m122.5 50.3h-39.1c1.5 6.1 6.8 9.9 14 9.9 5 0 8-1.4 11.1-5h13.2c-3.4 10.4-13.9 16.2-24.1 16.2-15.4 0-27.4-11.5-27.4-26.3 0-14.9 11.8-26.6 26.6-26.6 15.1 0 26.1 11.5 26.1 27.2.1 1.8 0 2.9-.4 4.6zm-25.5-20.7c-7.2 0-12.1 3.6-14.1 10h28c-1.4-6.4-6.4-10-13.9-10z"/><path d="m156.9 71.4c-7.5 0-12.3-2.1-17.5-7.7v6.5h-11.1v-67.4h12.1v21.5c4.7-4.7 9.1-6.5 15.7-6.5 14.5 0 25.5 11.5 25.5 26.7-.1 15.3-10.5 26.9-24.7 26.9zm-2.6-42.4c-8.5 0-14.7 6.5-14.7 15.6 0 9.2 6.2 15.7 15 15.7 8.7 0 14.7-6.4 14.7-15.6 0-9-6.3-15.7-15-15.7z"/><path d="m210.6 71.4c-14.8 0-26.8-11.9-26.8-26.5 0-14.5 12-26.5 26.7-26.5 15.2 0 27 11.8 27 26.8 0 14.4-12.3 26.2-26.9 26.2zm0-41.8c-7.9 0-14.6 6.8-14.6 15.1 0 8.7 6.5 15.5 14.7 15.5 8 0 14.6-6.8 14.6-15.3-.1-8.3-6.6-15.3-14.7-15.3z"/><path d="m241.8 70.2v-67.4h12.1v67.4z"/><path d="m277.3 70.2v-10.8l22.3-28.8h-19.7v-10.9h34.2v10.9l-22.3 28.8h24v10.9h-38.5z"/><path d="m383.6 70.2v-27.7c0-10.1-3.8-12.9-9.5-12.9-6.8 0-10.2 3.7-10.2 15.7v24.9h-12.1v-27.7c0-9.9-3.5-12.9-9.9-12.9-7 0-9.9 3.7-9.9 15.7v24.9h-12.1v-50.5h11.1v4.7c3.6-4.3 7.2-5.9 13.1-5.9 6.9 0 11.4 2.4 14.9 7.8 4.1-5.5 9.1-7.8 16.2-7.8 13.3 0 20.4 7.4 20.4 22.5v29.2z"/><path d="m443.1 70.2v-6.6c-4.8 5.5-9.7 7.8-16.8 7.8-14.8 0-25.5-11-25.5-26.3 0-15.4 10.8-26.6 25.7-26.6 7.3 0 12.3 2.4 16.5 7.9v-6.8h11.1v50.6zm-15.2-40.6c-8.7 0-14.8 6.6-14.8 15.8 0 8.9 6.1 14.9 15 14.9 9.2 0 14.7-6.6 14.7-15 0-9.2-6.2-15.7-14.9-15.7z"/><path d="m472.6 8c0 4.5-3.5 8-8.1 8s-8.2-3.5-8.2-8c0-4.4 3.6-7.9 8.2-7.9 4.5 0 8.1 3.5 8.1 7.9zm-14.3 0c0 3.5 2.6 6.3 6.2 6.3 3.5 0 6.1-2.8 6.1-6.3s-2.6-6.4-6.1-6.4c-3.6.1-6.2 2.9-6.2 6.4zm4.9 4.2h-1.8v-8c.7-.1 1.7-.2 3.1-.2 1.5 0 2.2.2 2.8.6.4.3.8 1 .8 1.7 0 .9-.7 1.6-1.6 1.8v.1c.8.3 1.2.9 1.5 1.9.2 1.2.4 1.7.6 2h-2c-.2-.3-.4-1-.6-1.9-.5-.8-.9-1.2-2-1.2h-.9v3.2zm0-4.5h.9c1 0 1.8-.3 1.8-1.2 0-.7-.5-1.2-1.7-1.2-.5 0-.8 0-1 .1z"/></g></svg>