<?xml version="1.0" encoding="UTF-8"?><svg id="a" xmlns="http://www.w3.org/2000/svg" width="16.07cm" height="9.01cm" viewBox="0 0 455.63 255.31"><g><path d="M66.37,209.48c-6.69,0-12.77-2.04-18.23-6.12-4.49-3.34-8.52-8.2-12.11-14.56l-1.22,12.36c-.49,2.12-1.04,3.57-1.65,4.34-.61,.78-1.65,1.16-3.12,1.16h-9.54c-2.86,0-4.28-1.67-4.28-5.01V4.9c0-3.18,1.43-4.82,4.28-4.9h14.8c2.77,0,4.16,1.63,4.16,4.9V61.55c7.51-11.83,17.17-17.74,29-17.74,11.18,0,20.27,4.4,27.29,13.21,6.69,8.32,10.04,18.4,10.04,30.22v77.82c0,12.97-3.51,23.49-10.52,31.57-7.34,8.56-16.97,12.85-28.88,12.85Zm-4.04-21.9c5.63,0,10.4-2.16,14.31-6.49,3.75-4.16,5.63-9.14,5.63-14.93V87.36c0-5.47-1.71-10.32-5.14-14.56-3.83-4.65-8.77-6.97-14.8-6.97-6.69,0-12.16,2.45-16.4,7.34-4.16,4.73-6.24,10.36-6.24,16.88v72.19c0,6.61,2.08,12.44,6.24,17.5,4.32,5.22,9.79,7.83,16.4,7.83Z" fill="#00356f"/><path d="M135.38,30.71c-3.84,0-5.75-1.79-5.75-5.38V13.09c0-3.83,1.88-5.75,5.63-5.75h16.4c3.59,0,5.34,2,5.26,6v11.99c0,3.59-1.75,5.38-5.26,5.38h-16.27Zm.73,175.95c-2.86,0-4.28-1.59-4.28-4.77V50.9c0-1.14,.41-2.14,1.22-3,.81-.86,1.83-1.29,3.06-1.29h14.8c1.31,0,2.36,.47,3.18,1.41,.81,.94,1.22,1.98,1.22,3.12V201.89c0,3.18-1.47,4.77-4.41,4.77h-14.8Z" fill="#00356f"/><path d="M234.98,209.48c-6.69,0-12.77-2.04-18.23-6.12-4.49-3.34-8.52-8.2-12.11-14.56l-1.22,12.36c-.49,2.12-1.04,3.57-1.65,4.34-.61,.78-1.65,1.16-3.12,1.16h-9.54c-2.86,0-4.28-1.67-4.28-5.01V4.9c0-3.18,1.43-4.82,4.28-4.9h14.8c2.77,0,4.16,1.63,4.16,4.9V61.55c7.51-11.83,17.17-17.74,29-17.74,11.18,0,20.27,4.4,27.29,13.21,6.69,8.32,10.04,18.4,10.04,30.22v77.82c0,12.97-3.51,23.49-10.52,31.57-7.34,8.56-16.97,12.85-28.88,12.85Zm-4.04-21.9c5.63,0,10.4-2.16,14.31-6.49,3.75-4.16,5.63-9.14,5.63-14.93V87.36c0-5.47-1.71-10.32-5.14-14.56-3.83-4.65-8.77-6.97-14.8-6.97-6.69,0-12.16,2.45-16.4,7.34-4.16,4.73-6.24,10.36-6.24,16.88v72.19c0,6.61,2.08,12.44,6.24,17.5,4.32,5.22,9.79,7.83,16.4,7.83Z" fill="#00356f"/><path d="M304.72,206.66c-2.86,0-4.28-1.67-4.28-5.01V4.9c0-3.18,1.43-4.82,4.28-4.9h14.8c2.86,0,4.32,1.63,4.41,4.9V201.65c0,3.34-1.47,5.01-4.41,5.01h-14.8Z" fill="#00356f"/><path d="M394.53,209.48c-12.56,0-23.12-4.04-31.69-12.12-8.81-8.32-13.18-18.64-13.09-30.95V87c0-11.83,4.36-22.03,13.09-30.59,8.73-8.4,19.25-12.6,31.57-12.6s23.37,4.08,31.94,12.23c8.73,8.24,13.09,18.56,13.09,30.96v79.41c0,12.32-4.36,22.63-13.09,30.95-8.48,8.08-19.09,12.12-31.81,12.12Zm.12-21.78c5.95,0,10.97-2.08,15.05-6.24,4.08-4.08,6.16-9.09,6.24-15.05V87c0-5.79-2.1-10.79-6.3-14.99-4.2-4.2-9.2-6.3-14.99-6.3s-11.01,2.08-15.17,6.24c-4.16,4.16-6.24,9.17-6.24,15.05v79.41c0,6.04,2.08,11.05,6.24,15.05,4.4,4.16,9.46,6.24,15.17,6.24Z" fill="#00356f"/></g><g><rect x=".09" y="221.6" width="455.45" height=".69" fill="#eb5d3e"/><path d="M455.63,222.39H0v-.88H455.63v.88ZM.19,222.2H455.45v-.51H.19v.51Z" fill="#eb5d3e"/></g><g><g><path d="M26.37,241.05v1.24c-1.05-1.05-2.29-1.57-3.76-1.57-1.35,0-2.49,.46-3.39,1.38-.89,.9-1.33,2.03-1.33,3.39s.44,2.49,1.33,3.41c.9,.9,2.03,1.36,3.39,1.36,1.46,0,2.71-.52,3.76-1.57v1.25c-.98,.9-2.25,1.35-3.76,1.35-1.64,0-3.02-.55-4.13-1.66s-1.68-2.49-1.68-4.13,.57-3.02,1.68-4.13,2.49-1.66,4.13-1.66c1.49,0,2.73,.46,3.76,1.36Z" fill="#eb5d3e"/><path d="M22.61,251.37c-1.66,0-3.08-.57-4.2-1.69s-1.71-2.55-1.71-4.2,.58-3.06,1.71-4.2,2.53-1.69,4.2-1.69c1.48,0,2.77,.46,3.82,1.38l.03,.03v1.51l-.16-.16c-1.04-1.04-2.25-1.55-3.69-1.55-1.33,0-2.45,.45-3.32,1.35-.87,.87-1.31,1.99-1.31,3.32s.44,2.45,1.31,3.34c.88,.88,2,1.33,3.32,1.33,1.45,0,2.65-.51,3.69-1.55l.16-.16v1.52l-.03,.03c-1,.91-2.29,1.38-3.82,1.38Zm0-11.58c-1.61,0-2.98,.55-4.06,1.63s-1.66,2.47-1.66,4.07,.56,2.97,1.66,4.06,2.45,1.63,4.06,1.63c1.47,0,2.7-.44,3.67-1.3v-.98c-1.03,.96-2.26,1.45-3.67,1.45s-2.54-.47-3.45-1.38c-.9-.92-1.36-2.09-1.36-3.47s.46-2.55,1.36-3.45c.91-.93,2.07-1.4,3.45-1.4s2.64,.49,3.67,1.44v-.98c-1.01-.87-2.24-1.31-3.67-1.31Z" fill="#eb5d3e"/></g><g><path d="M33.13,251v-11.01h1.09v2.21c.55-1.59,1.79-2.38,3.74-2.38,.24,0,.41,0,.52,.02v1.14c-.17-.02-.41-.04-.7-.04-1.16,0-2.03,.39-2.65,1.16s-.92,1.73-.92,2.89v6.03h-1.09Z" fill="#eb5d3e"/><path d="M34.32,251.09h-1.28v-11.2h1.28v1.82c.63-1.32,1.85-1.99,3.64-1.99,.25,0,.42,0,.54,.02h.08v1.33h-.1c-.23-.04-.46-.06-.69-.06-1.11,0-1.97,.38-2.57,1.12-.6,.74-.9,1.7-.9,2.83v6.12Zm-1.09-.19h.91v-5.94c0-1.17,.32-2.17,.94-2.94,.63-.79,1.55-1.19,2.72-1.19,.2,0,.4,.01,.6,.03v-.95c-.1,0-.25,0-.43,0-1.92,0-3.11,.76-3.65,2.32l-.18,.53v-2.68h-.91v10.83Z" fill="#eb5d3e"/></g><g><path d="M43.62,245.51c0-1.68,.5-3.08,1.53-4.15,1.03-1.09,2.32-1.64,3.85-1.64s2.69,.52,3.65,1.6c.98,1.07,1.46,2.36,1.46,3.89,0,.22,0,.39-.02,.55h-9.4c.02,1.33,.44,2.4,1.25,3.26s1.86,1.27,3.1,1.27c1.9,0,3.37-.77,4.13-1.7v1.29c-1.07,.96-2.45,1.44-4.13,1.44s-2.89-.52-3.91-1.57c-1.01-1.07-1.51-2.45-1.51-4.15v-.06Zm9.33-.74c-.02-1.11-.42-2.08-1.18-2.84-.76-.79-1.68-1.18-2.78-1.18-1.16,0-2.14,.39-2.97,1.18-.81,.77-1.24,1.73-1.29,2.84h8.22Z" fill="#eb5d3e"/><path d="M49.04,251.4c-1.62,0-2.92-.52-3.98-1.6-1.02-1.09-1.53-2.51-1.53-4.22v-.06c0-1.72,.52-3.14,1.55-4.22,1.04-1.11,2.36-1.67,3.92-1.67s2.75,.55,3.72,1.63c1,1.09,1.49,2.38,1.49,3.95,0,.22,0,.4-.02,.56v.08h-9.4c.04,1.26,.44,2.27,1.22,3.1,.78,.82,1.8,1.24,3.04,1.24,1.69,0,3.21-.63,4.06-1.67l.17-.21v1.59l-.03,.03c-1.08,.97-2.49,1.47-4.19,1.47Zm-.04-11.58c-1.5,0-2.77,.54-3.78,1.61-1,1.04-1.5,2.42-1.5,4.09v.06c0,1.69,.49,3.03,1.48,4.09,1.02,1.04,2.27,1.54,3.84,1.54s2.99-.47,4.04-1.39v-1c-.91,.98-2.4,1.55-4.04,1.55-1.29,0-2.36-.44-3.17-1.3-.83-.88-1.25-1.97-1.27-3.32v-.1s9.41,0,9.41,0c.01-.13,.01-.27,.01-.45,0-1.52-.47-2.77-1.44-3.83-.93-1.04-2.14-1.57-3.58-1.57Zm4.05,5.05h-8.41v-.1c.05-1.14,.49-2.12,1.32-2.91,.84-.8,1.87-1.2,3.04-1.2,1.11,0,2.06,.41,2.84,1.21,.78,.78,1.18,1.76,1.21,2.91v.1Zm-8.21-.19h8.02c-.04-1.06-.43-1.96-1.15-2.68-.75-.78-1.64-1.15-2.71-1.15-1.14,0-2.09,.38-2.91,1.15-.77,.73-1.19,1.63-1.25,2.68Z" fill="#eb5d3e"/></g><g><path d="M68.76,240.46c.81,.5,1.33,1.09,1.57,1.81v-2.29h1.09v11.01h-1.09v-2.29c-.24,.72-.76,1.33-1.57,1.84-.79,.5-1.73,.74-2.8,.74-1.55,0-2.89-.55-3.96-1.66s-1.59-2.49-1.59-4.13,.52-3.02,1.59-4.13,2.4-1.66,3.96-1.66c1.07,0,2.01,.26,2.8,.77Zm-5.99,8.43c.85,.9,1.92,1.36,3.19,1.36s2.36-.44,3.21-1.33c.85-.89,1.29-2.05,1.29-3.43s-.44-2.51-1.29-3.41-1.92-1.35-3.21-1.35-2.34,.46-3.19,1.38c-.85,.92-1.27,2.05-1.27,3.39s.42,2.49,1.27,3.41Z" fill="#eb5d3e"/><path d="M65.96,251.37c-1.59,0-2.95-.57-4.02-1.69-1.08-1.12-1.62-2.53-1.62-4.19s.54-3.08,1.62-4.2c1.08-1.12,2.43-1.69,4.02-1.69,1.08,0,2.04,.26,2.85,.78h0c.67,.42,1.14,.89,1.43,1.43v-1.93h1.28v11.2h-1.28v-1.93c-.29,.56-.77,1.04-1.43,1.46-.79,.5-1.74,.76-2.85,.76Zm0-11.58c-1.54,0-2.85,.55-3.89,1.63-1.04,1.09-1.57,2.45-1.57,4.07s.53,2.98,1.57,4.07c1.04,1.08,2.35,1.63,3.89,1.63,1.07,0,1.99-.25,2.75-.73,.79-.49,1.3-1.09,1.53-1.79l.18-.55v2.78h.91v-10.83h-.91v2.78l-.18-.55c-.23-.69-.73-1.26-1.53-1.76h0c-.78-.5-1.7-.75-2.75-.75Zm0,10.56c-1.29,0-2.38-.47-3.26-1.39h0c-.86-.92-1.29-2.09-1.29-3.47s.43-2.53,1.29-3.45c.87-.93,1.96-1.41,3.26-1.41s2.41,.47,3.28,1.38c.87,.92,1.31,2.09,1.31,3.47s-.44,2.58-1.31,3.49c-.86,.91-1.97,1.36-3.28,1.36Zm-3.12-1.51c.84,.88,1.89,1.33,3.12,1.33s2.31-.43,3.15-1.31c.84-.88,1.26-2.01,1.26-3.37s-.43-2.46-1.26-3.35c-.84-.88-1.9-1.33-3.15-1.33s-2.29,.45-3.12,1.35c-.83,.89-1.24,2.01-1.24,3.32s.42,2.46,1.24,3.34Z" fill="#eb5d3e"/></g><g><path d="M79.43,251v-9.99h-1.38v-1.03h1.38v-4.22h1.09v4.22h2.58v1.03h-2.58v9.99h-1.09Z" fill="#eb5d3e"/><path d="M80.62,251.09h-1.28v-9.99h-1.38v-1.22h1.38v-4.22h1.28v4.22h2.58v1.22h-2.58v9.99Zm-1.09-.19h.91v-9.99h2.58v-.84h-2.58v-4.22h-.91v4.22h-1.38v.84h1.38v9.99Z" fill="#eb5d3e"/></g><g><path d="M89.61,237.58c-.28-.28-.28-.81,0-1.09,.7-.79,1.88,.44,1.11,1.09-.28,.28-.79,.28-1.11,0Zm.02,13.42v-11.01h1.09v11.01h-1.09Z" fill="#eb5d3e"/><path d="M90.82,251.09h-1.28v-11.2h1.28v11.2Zm-1.09-.19h.91v-10.83h-.91v10.83Zm.46-13.02c-.22,0-.45-.08-.64-.24h0c-.32-.33-.32-.91,0-1.23,.21-.24,.49-.33,.79-.26,.34,.09,.63,.38,.71,.73,.07,.29-.03,.56-.26,.76-.16,.16-.37,.24-.6,.24Zm-.51-.38c.29,.25,.74,.25,.98,0,.24-.2,.24-.43,.21-.58-.06-.27-.31-.52-.58-.58-.16-.04-.39-.04-.61,.2-.25,.25-.25,.71,0,.96Z" fill="#eb5d3e"/></g><g><path d="M102.17,251.57l-5.09-11.58h1.18l3.91,9.03,3.96-9.03h1.18l-5.14,11.58Z" fill="#eb5d3e"/><path d="M102.17,251.8l-.09-.19-5.15-11.72h1.38l.02,.06,3.83,8.83,3.9-8.88h1.39l-5.28,11.91Zm-4.95-11.72l4.95,11.26,4.99-11.26h-.98l-4.02,9.17-.09-.2-3.89-8.97h-.97Z" fill="#eb5d3e"/></g><g><path d="M112.48,245.51c0-1.68,.5-3.08,1.53-4.15,1.03-1.09,2.32-1.64,3.85-1.64s2.69,.52,3.65,1.6c.98,1.07,1.46,2.36,1.46,3.89,0,.22,0,.39-.02,.55h-9.4c.02,1.33,.44,2.4,1.25,3.26s1.86,1.27,3.1,1.27c1.9,0,3.37-.77,4.13-1.7v1.29c-1.07,.96-2.45,1.44-4.13,1.44s-2.89-.52-3.91-1.57c-1.01-1.07-1.51-2.45-1.51-4.15v-.06Zm9.33-.74c-.02-1.11-.42-2.08-1.18-2.84-.76-.79-1.68-1.18-2.78-1.18-1.16,0-2.14,.39-2.97,1.18-.81,.77-1.24,1.73-1.29,2.84h8.22Z" fill="#eb5d3e"/><path d="M117.9,251.4c-1.62,0-2.92-.52-3.98-1.6-1.02-1.09-1.53-2.51-1.53-4.22v-.06c0-1.72,.52-3.14,1.55-4.22,1.04-1.11,2.36-1.67,3.92-1.67s2.75,.55,3.72,1.63c1,1.09,1.49,2.38,1.49,3.95,0,.22,0,.4-.02,.56v.08h-9.4c.04,1.26,.44,2.27,1.22,3.1,.78,.82,1.8,1.24,3.04,1.24,1.69,0,3.21-.63,4.06-1.67l.17-.21v1.59l-.03,.03c-1.08,.97-2.49,1.47-4.19,1.47Zm-.04-11.58c-1.5,0-2.77,.54-3.78,1.61-1,1.04-1.5,2.42-1.5,4.09v.06c0,1.69,.49,3.03,1.48,4.09,1.02,1.04,2.27,1.54,3.84,1.54s2.99-.47,4.04-1.39v-1c-.91,.98-2.4,1.55-4.04,1.55-1.29,0-2.36-.44-3.17-1.3-.83-.88-1.25-1.97-1.27-3.32v-.1s9.41,0,9.41,0c.01-.13,.01-.27,.01-.45,0-1.52-.47-2.77-1.44-3.83-.93-1.04-2.14-1.57-3.58-1.57Zm4.05,5.05h-8.41v-.1c.05-1.14,.49-2.12,1.32-2.91,.84-.8,1.87-1.2,3.04-1.2,1.11,0,2.06,.41,2.84,1.21,.78,.78,1.18,1.76,1.21,2.91v.1Zm-8.21-.19h8.02c-.04-1.06-.43-1.96-1.15-2.68-.75-.78-1.64-1.15-2.71-1.15-1.14,0-2.09,.38-2.91,1.15-.77,.73-1.19,1.63-1.25,2.68Z" fill="#eb5d3e"/></g><g><path d="M150.99,240.46c.81,.5,1.33,1.09,1.57,1.81v-2.29h1.09v11.01h-1.09v-2.29c-.24,.72-.76,1.33-1.57,1.84-.79,.5-1.73,.74-2.8,.74-1.55,0-2.89-.55-3.96-1.66s-1.59-2.49-1.59-4.13,.52-3.02,1.59-4.13,2.4-1.66,3.96-1.66c1.07,0,2.01,.26,2.8,.77Zm-5.99,8.43c.85,.9,1.92,1.36,3.19,1.36s2.36-.44,3.21-1.33c.85-.89,1.29-2.05,1.29-3.43s-.44-2.51-1.29-3.41-1.92-1.35-3.21-1.35-2.34,.46-3.19,1.38c-.85,.92-1.27,2.05-1.27,3.39s.42,2.49,1.27,3.41Z" fill="#eb5d3e"/><path d="M148.19,251.37c-1.59,0-2.95-.57-4.02-1.69-1.08-1.12-1.62-2.53-1.62-4.19s.54-3.08,1.62-4.2c1.08-1.12,2.43-1.69,4.02-1.69,1.08,0,2.04,.26,2.85,.78h0c.67,.42,1.14,.89,1.43,1.43v-1.93h1.28v11.2h-1.28v-1.93c-.29,.56-.77,1.04-1.43,1.46-.79,.5-1.74,.76-2.85,.76Zm0-11.58c-1.54,0-2.85,.55-3.89,1.63-1.04,1.09-1.57,2.45-1.57,4.07s.53,2.98,1.57,4.07c1.04,1.08,2.35,1.63,3.89,1.63,1.07,0,1.99-.25,2.75-.73,.79-.49,1.3-1.09,1.53-1.79l.18-.55v2.78h.91v-10.83h-.91v2.78l-.18-.55c-.23-.69-.73-1.26-1.53-1.76h0c-.78-.5-1.7-.75-2.75-.75Zm0,10.56c-1.29,0-2.38-.47-3.26-1.39h0c-.86-.92-1.29-2.09-1.29-3.47s.43-2.53,1.29-3.45c.87-.93,1.96-1.41,3.26-1.41s2.41,.47,3.28,1.38c.87,.92,1.31,2.09,1.31,3.47s-.44,2.58-1.31,3.49c-.86,.91-1.97,1.36-3.28,1.36Zm-3.12-1.51c.84,.88,1.89,1.33,3.12,1.33s2.31-.43,3.15-1.31c.84-.88,1.26-2.01,1.26-3.37s-.43-2.46-1.26-3.35c-.84-.88-1.9-1.33-3.15-1.33s-2.29,.45-3.12,1.35c-.83,.89-1.24,2.01-1.24,3.32s.42,2.46,1.24,3.34Z" fill="#eb5d3e"/></g><g><path d="M160.88,255.21v-15.23h1.09v2.29c.24-.72,.77-1.31,1.55-1.81,.81-.5,1.75-.77,2.82-.77,1.55,0,2.86,.55,3.93,1.66,1.07,1.11,1.62,2.49,1.62,4.13s-.55,3.02-1.62,4.13c-1.07,1.11-2.38,1.66-3.93,1.66-1.07,0-2.01-.24-2.82-.74-.79-.5-1.31-1.11-1.55-1.84v6.51h-1.09Zm8.63-6.34c.85-.92,1.29-2.05,1.29-3.39s-.44-2.49-1.29-3.39c-.85-.92-1.9-1.38-3.17-1.38s-2.36,.46-3.21,1.35-1.29,2.03-1.29,3.41,.44,2.54,1.29,3.43c.85,.9,1.92,1.33,3.21,1.33s2.32-.46,3.17-1.38Z" fill="#eb5d3e"/><path d="M162.06,255.31h-1.28v-15.42h1.28v1.93c.28-.54,.75-1.01,1.41-1.43,.83-.52,1.8-.78,2.87-.78,1.58,0,2.92,.57,4,1.69,1.09,1.13,1.64,2.55,1.64,4.2s-.55,3.06-1.64,4.19c-1.08,1.12-2.43,1.69-4,1.69-1.1,0-2.06-.25-2.87-.76-.65-.42-1.12-.9-1.41-1.46v6.15Zm-1.09-.19h.91v-7l.18,.55c.23,.69,.74,1.29,1.51,1.79,.78,.48,1.71,.73,2.77,.73,1.52,0,2.82-.55,3.87-1.63,1.06-1.1,1.59-2.47,1.59-4.06s-.54-2.97-1.59-4.07c-1.04-1.08-2.34-1.63-3.87-1.63-1.04,0-1.97,.25-2.77,.75-.79,.51-1.29,1.08-1.51,1.76l-.18,.55v-2.78h-.91v15.05Zm5.37-4.77c-1.32,0-2.42-.46-3.28-1.36-.87-.91-1.31-2.09-1.31-3.49s.44-2.56,1.31-3.47c.87-.92,1.98-1.38,3.28-1.38s2.37,.47,3.24,1.41c.87,.92,1.31,2.08,1.31,3.45s-.44,2.51-1.31,3.45h0c-.87,.93-1.96,1.41-3.24,1.41Zm0-9.53c-1.25,0-2.31,.45-3.15,1.33-.84,.88-1.26,2.01-1.26,3.35s.43,2.49,1.26,3.37c.84,.88,1.86,1.31,3.15,1.31s2.26-.44,3.1-1.35h0c.84-.9,1.27-2.02,1.27-3.32s-.43-2.44-1.26-3.32c-.84-.91-1.86-1.35-3.1-1.35Z" fill="#eb5d3e"/></g><g><path d="M178.65,255.21v-15.23h1.09v2.29c.24-.72,.77-1.31,1.55-1.81,.81-.5,1.75-.77,2.82-.77,1.55,0,2.86,.55,3.93,1.66,1.07,1.11,1.62,2.49,1.62,4.13s-.55,3.02-1.62,4.13c-1.07,1.11-2.38,1.66-3.93,1.66-1.07,0-2.01-.24-2.82-.74-.79-.5-1.31-1.11-1.55-1.84v6.51h-1.09Zm8.63-6.34c.85-.92,1.29-2.05,1.29-3.39s-.44-2.49-1.29-3.39c-.85-.92-1.9-1.38-3.17-1.38s-2.36,.46-3.21,1.35-1.29,2.03-1.29,3.41,.44,2.54,1.29,3.43c.85,.9,1.92,1.33,3.21,1.33s2.32-.46,3.17-1.38Z" fill="#eb5d3e"/><path d="M179.84,255.31h-1.28v-15.42h1.28v1.93c.28-.54,.75-1.01,1.41-1.43,.83-.52,1.8-.78,2.87-.78,1.58,0,2.92,.57,4,1.69,1.09,1.13,1.64,2.55,1.64,4.2s-.55,3.06-1.64,4.19c-1.08,1.12-2.43,1.69-4,1.69-1.1,0-2.06-.25-2.87-.76-.65-.42-1.12-.9-1.41-1.46v6.15Zm-1.09-.19h.91v-7l.18,.55c.23,.69,.74,1.29,1.51,1.79,.78,.48,1.71,.73,2.77,.73,1.52,0,2.82-.55,3.87-1.63,1.06-1.1,1.59-2.47,1.59-4.06s-.54-2.97-1.59-4.07c-1.04-1.08-2.34-1.63-3.87-1.63-1.04,0-1.97,.25-2.77,.75-.79,.51-1.29,1.08-1.51,1.76l-.18,.55v-2.78h-.91v15.05Zm5.37-4.77c-1.32,0-2.42-.46-3.28-1.36-.87-.91-1.31-2.09-1.31-3.49s.44-2.56,1.31-3.47c.87-.92,1.98-1.38,3.28-1.38s2.37,.47,3.24,1.41c.87,.92,1.31,2.08,1.31,3.45s-.44,2.51-1.31,3.45h0c-.87,.93-1.96,1.41-3.24,1.41Zm0-9.53c-1.25,0-2.31,.45-3.15,1.33-.84,.88-1.26,2.01-1.26,3.35s.43,2.49,1.26,3.37c.84,.88,1.86,1.31,3.15,1.31s2.26-.44,3.1-1.35h0c.84-.9,1.27-2.02,1.27-3.32s-.43-2.44-1.26-3.32c-.84-.91-1.86-1.35-3.1-1.35Z" fill="#eb5d3e"/></g><g><path d="M196.43,251v-11.01h1.09v2.21c.55-1.59,1.79-2.38,3.74-2.38,.24,0,.41,0,.52,.02v1.14c-.17-.02-.41-.04-.7-.04-1.16,0-2.03,.39-2.65,1.16s-.92,1.73-.92,2.89v6.03h-1.09Z" fill="#eb5d3e"/><path d="M197.62,251.09h-1.28v-11.2h1.28v1.82c.63-1.32,1.85-1.99,3.64-1.99,.25,0,.42,0,.54,.02h.08v1.33h-.1c-.23-.04-.46-.06-.69-.06-1.11,0-1.97,.38-2.57,1.12-.6,.74-.9,1.7-.9,2.83v6.12Zm-1.09-.19h.91v-5.94c0-1.17,.32-2.17,.94-2.94,.63-.79,1.55-1.19,2.72-1.19,.2,0,.4,.01,.6,.03v-.95c-.1,0-.25,0-.43,0-1.92,0-3.11,.76-3.65,2.32l-.18,.53v-2.68h-.91v10.83Z" fill="#eb5d3e"/></g><g><path d="M206.89,245.49c0-1.64,.55-3.02,1.66-4.13s2.49-1.66,4.13-1.66,3,.55,4.11,1.66,1.68,2.49,1.68,4.13-.57,3.02-1.68,4.13-2.47,1.66-4.11,1.66-3.02-.55-4.13-1.66-1.66-2.49-1.66-4.13Zm1.09,0c0,1.35,.44,2.49,1.33,3.41,.9,.9,2.03,1.36,3.37,1.36s2.45-.46,3.34-1.36c.9-.92,1.36-2.05,1.36-3.41s-.46-2.49-1.36-3.39c-.89-.92-2.01-1.38-3.34-1.38s-2.47,.46-3.37,1.38c-.89,.9-1.33,2.03-1.33,3.39Z" fill="#eb5d3e"/><path d="M212.68,251.37c-1.66,0-3.08-.57-4.2-1.69s-1.69-2.53-1.69-4.2,.57-3.08,1.69-4.2,2.53-1.69,4.2-1.69,3.04,.55,4.18,1.69,1.71,2.55,1.71,4.2-.58,3.06-1.71,4.2-2.5,1.69-4.18,1.69Zm0-11.58c-1.61,0-2.98,.55-4.06,1.63s-1.63,2.45-1.63,4.07,.55,2.98,1.63,4.06,2.45,1.63,4.06,1.63,2.94-.54,4.04-1.63c1.1-1.1,1.66-2.47,1.66-4.06s-.56-2.97-1.66-4.07c-1.1-1.1-2.42-1.63-4.04-1.63Zm0,10.56c-1.36,0-2.51-.47-3.43-1.38-.9-.92-1.36-2.09-1.36-3.47s.46-2.55,1.36-3.45c.91-.93,2.06-1.4,3.43-1.4s2.5,.47,3.41,1.4c.92,.92,1.38,2.08,1.38,3.45s-.47,2.54-1.38,3.47c-.92,.92-2.07,1.38-3.41,1.38Zm0-9.53c-1.32,0-2.43,.45-3.3,1.35-.87,.87-1.31,1.99-1.31,3.32s.44,2.45,1.31,3.34c.88,.88,1.99,1.33,3.3,1.33s2.4-.45,3.28-1.33c.88-.9,1.33-2.03,1.33-3.34s-.45-2.44-1.33-3.32c-.87-.89-1.97-1.35-3.28-1.35Z" fill="#eb5d3e"/></g><g><path d="M233.08,240.46c.81,.5,1.33,1.09,1.57,1.81v-2.29h1.09v11.01h-1.09v-2.29c-.24,.72-.76,1.33-1.57,1.84-.79,.5-1.73,.74-2.8,.74-1.55,0-2.89-.55-3.96-1.66s-1.59-2.49-1.59-4.13,.52-3.02,1.59-4.13,2.4-1.66,3.96-1.66c1.07,0,2.01,.26,2.8,.77Zm-5.99,8.43c.85,.9,1.92,1.36,3.19,1.36s2.36-.44,3.21-1.33c.85-.89,1.29-2.05,1.29-3.43s-.44-2.51-1.29-3.41-1.92-1.35-3.21-1.35-2.34,.46-3.19,1.38c-.85,.92-1.27,2.05-1.27,3.39s.42,2.49,1.27,3.41Z" fill="#eb5d3e"/><path d="M230.29,251.37c-1.59,0-2.95-.57-4.02-1.69-1.08-1.12-1.62-2.53-1.62-4.19s.54-3.08,1.62-4.2c1.08-1.12,2.43-1.69,4.02-1.69,1.08,0,2.04,.26,2.85,.78h0c.67,.42,1.14,.89,1.43,1.43v-1.93h1.28v11.2h-1.28v-1.93c-.29,.56-.77,1.04-1.43,1.46-.79,.5-1.74,.76-2.85,.76Zm0-11.58c-1.54,0-2.85,.55-3.89,1.63-1.04,1.09-1.57,2.45-1.57,4.07s.53,2.98,1.57,4.07c1.04,1.08,2.35,1.63,3.89,1.63,1.07,0,1.99-.25,2.75-.73,.79-.49,1.3-1.09,1.53-1.79l.18-.55v2.78h.91v-10.83h-.91v2.78l-.18-.55c-.23-.69-.73-1.26-1.53-1.76h0c-.78-.5-1.7-.75-2.75-.75Zm0,10.56c-1.29,0-2.38-.47-3.26-1.39h0c-.86-.92-1.29-2.09-1.29-3.47s.43-2.53,1.29-3.45c.87-.93,1.96-1.41,3.26-1.41s2.41,.47,3.28,1.38c.87,.92,1.31,2.09,1.31,3.47s-.44,2.58-1.31,3.49c-.86,.91-1.97,1.36-3.28,1.36Zm-3.12-1.51c.84,.88,1.89,1.33,3.12,1.33s2.32-.44,3.15-1.31c.84-.88,1.26-2.01,1.26-3.37s-.43-2.46-1.26-3.35c-.84-.88-1.9-1.33-3.15-1.33s-2.29,.45-3.12,1.35c-.83,.89-1.24,2.01-1.24,3.32s.42,2.46,1.24,3.34h0Z" fill="#eb5d3e"/></g><g><path d="M252.04,241.05v1.24c-1.05-1.05-2.29-1.57-3.76-1.57-1.35,0-2.49,.46-3.39,1.38-.89,.9-1.33,2.03-1.33,3.39s.44,2.49,1.33,3.41c.9,.9,2.03,1.36,3.39,1.36,1.46,0,2.71-.52,3.76-1.57v1.25c-.98,.9-2.25,1.35-3.76,1.35-1.64,0-3.02-.55-4.13-1.66s-1.68-2.49-1.68-4.13,.57-3.02,1.68-4.13,2.49-1.66,4.13-1.66c1.49,0,2.73,.46,3.76,1.36Z" fill="#eb5d3e"/><path d="M248.28,251.37c-1.66,0-3.08-.57-4.2-1.69s-1.71-2.55-1.71-4.2,.58-3.06,1.71-4.2,2.53-1.69,4.2-1.69c1.48,0,2.77,.46,3.82,1.38l.03,.03v1.51l-.16-.16c-1.04-1.04-2.25-1.55-3.69-1.55-1.33,0-2.45,.45-3.32,1.35-.87,.87-1.31,1.99-1.31,3.32s.44,2.45,1.31,3.34c.88,.88,2,1.33,3.32,1.33,1.45,0,2.65-.51,3.69-1.55l.16-.16v1.52l-.03,.03c-1,.91-2.29,1.38-3.82,1.38Zm0-11.58c-1.61,0-2.98,.55-4.06,1.63s-1.66,2.47-1.66,4.07,.56,2.97,1.66,4.06,2.45,1.63,4.06,1.63c1.47,0,2.7-.44,3.67-1.3v-.98c-1.03,.96-2.26,1.45-3.67,1.45s-2.54-.47-3.45-1.38c-.9-.92-1.36-2.09-1.36-3.47s.46-2.55,1.36-3.45c.91-.93,2.07-1.4,3.45-1.4s2.64,.49,3.67,1.44v-.98c-1.01-.87-2.24-1.31-3.67-1.31Z" fill="#eb5d3e"/></g><g><path d="M258.81,251v-15.23h1.09v6.34c.59-1.53,1.84-2.29,3.74-2.29,1.25,0,2.23,.39,2.99,1.2,.77,.79,1.14,1.86,1.14,3.19v6.8h-1.09v-6.58c0-2.19-1.29-3.59-3.28-3.59-2.12,0-3.5,1.68-3.5,4.24v5.92h-1.09Z" fill="#eb5d3e"/><path d="M267.86,251.09h-1.28v-6.67c0-2.12-1.25-3.49-3.18-3.49-2.07,0-3.4,1.63-3.4,4.15v6.02h-1.28v-15.42h1.28v5.99c.66-1.29,1.88-1.95,3.64-1.95,1.28,0,2.28,.4,3.06,1.23,.77,.79,1.16,1.89,1.16,3.25v6.89Zm-1.09-.19h.91v-6.7c0-1.32-.37-2.37-1.11-3.12-.75-.79-1.7-1.17-2.93-1.17-1.85,0-3.08,.75-3.65,2.23l-.18,.47v-6.75h-.91v15.05h.91v-5.83c0-2.63,1.41-4.33,3.59-4.33,2.05,0,3.37,1.44,3.37,3.68v6.48Z" fill="#eb5d3e"/></g><g><path d="M287.87,248.46c.9,1.16,2.14,1.75,3.72,1.75,1.66,0,2.62-.74,2.62-1.94,0-.68-.18-1.14-.81-1.6-.31-.24-.57-.44-.81-.55-.22-.13-.61-.35-1.2-.63-2.03-1.03-2.89-1.73-2.89-3.1,0-1.64,1.25-2.69,3.19-2.69,.98,0,1.79,.26,2.43,.77v1.16c-.63-.59-1.42-.9-2.34-.9-1.4,0-2.18,.61-2.18,1.66,0,.81,.5,1.24,1.81,1.92l.79,.41c.39,.2,.66,.35,.76,.42,.13,.07,.35,.17,.63,.37,.31,.17,.5,.31,.61,.41,.2,.2,.7,.63,.81,.98,.15,.35,.28,.83,.28,1.35,0,.76-.31,1.44-.94,2.05-.61,.61-1.53,.92-2.78,.92-1.64,0-2.86-.48-3.72-1.46v-1.31Z" fill="#eb5d3e"/><path d="M291.59,251.33c-1.68,0-2.91-.49-3.79-1.5l-.02-.03v-1.62l.17,.22c.88,1.14,2.1,1.71,3.64,1.71s2.53-.69,2.53-1.85c0-.59-.13-1.05-.77-1.52-.28-.22-.55-.43-.79-.54-.23-.14-.62-.35-1.2-.63-1.99-1.01-2.94-1.74-2.94-3.19,0-1.69,1.29-2.78,3.28-2.78,.99,0,1.83,.26,2.48,.79l.03,.03v1.42l-.16-.15c-.62-.58-1.39-.87-2.27-.87-1.33,0-2.09,.57-2.09,1.57,0,.72,.4,1.13,1.77,1.84l.79,.41c.43,.22,.7,.38,.77,.42,.13,.07,.35,.18,.64,.38,.31,.18,.51,.31,.63,.42,.03,.03,.07,.07,.11,.1,.25,.24,.62,.6,.72,.92,.1,.24,.29,.75,.29,1.38,0,.8-.32,1.49-.97,2.12-.64,.63-1.57,.94-2.84,.94Zm-3.62-1.59c.83,.95,2.02,1.41,3.62,1.41,1.22,0,2.11-.29,2.71-.89,.61-.59,.91-1.24,.91-1.99,0-.6-.17-1.08-.28-1.32-.09-.28-.46-.64-.68-.85-.04-.04-.08-.08-.11-.11-.1-.1-.29-.23-.59-.4-.28-.2-.5-.3-.62-.37-.08-.05-.34-.21-.77-.42l-.79-.42c-1.26-.65-1.86-1.12-1.86-2.01,0-1.11,.83-1.75,2.28-1.75,.86,0,1.62,.26,2.25,.78v-.91c-.62-.48-1.4-.72-2.33-.72-1.88,0-3.1,1.02-3.1,2.6,0,1.36,.87,2.03,2.83,3.02,.59,.29,.98,.5,1.21,.64,.25,.11,.53,.33,.82,.55,.7,.51,.84,1.04,.84,1.67,0,1.28-1.02,2.04-2.72,2.04-1.5,0-2.72-.53-3.62-1.58v1.01Z" fill="#eb5d3e"/></g><g><path d="M301.29,245.49c0-1.64,.55-3.02,1.66-4.13s2.49-1.66,4.13-1.66,3,.55,4.11,1.66,1.68,2.49,1.68,4.13-.57,3.02-1.68,4.13-2.47,1.66-4.11,1.66-3.02-.55-4.13-1.66-1.66-2.49-1.66-4.13Zm1.09,0c0,1.35,.44,2.49,1.33,3.41,.9,.9,2.03,1.36,3.37,1.36s2.45-.46,3.34-1.36c.9-.92,1.36-2.05,1.36-3.41s-.46-2.49-1.36-3.39c-.89-.92-2.01-1.38-3.34-1.38s-2.47,.46-3.37,1.38c-.89,.9-1.33,2.03-1.33,3.39Z" fill="#eb5d3e"/><path d="M307.08,251.37c-1.66,0-3.08-.57-4.2-1.69s-1.69-2.53-1.69-4.2,.57-3.08,1.69-4.2,2.53-1.69,4.2-1.69,3.04,.55,4.18,1.69,1.71,2.55,1.71,4.2-.58,3.06-1.71,4.2-2.5,1.69-4.18,1.69Zm0-11.58c-1.61,0-2.98,.55-4.06,1.63s-1.63,2.45-1.63,4.07,.55,2.98,1.63,4.06,2.45,1.63,4.06,1.63,2.94-.54,4.04-1.63c1.1-1.1,1.66-2.47,1.66-4.06s-.56-2.97-1.66-4.07c-1.1-1.1-2.42-1.63-4.04-1.63Zm0,10.56c-1.36,0-2.51-.47-3.43-1.38-.9-.92-1.36-2.09-1.36-3.47s.46-2.55,1.36-3.45c.91-.93,2.06-1.4,3.43-1.4s2.5,.47,3.41,1.4c.92,.92,1.38,2.08,1.38,3.45s-.47,2.54-1.38,3.47c-.92,.92-2.07,1.38-3.41,1.38Zm0-9.53c-1.32,0-2.43,.45-3.3,1.35-.87,.87-1.31,1.99-1.31,3.32s.44,2.45,1.31,3.34c.88,.88,1.99,1.33,3.3,1.33s2.4-.45,3.28-1.33c.88-.9,1.33-2.03,1.33-3.34s-.45-2.44-1.33-3.32c-.87-.89-1.97-1.35-3.28-1.35Z" fill="#eb5d3e"/></g><g><path d="M319.63,251v-15.23h1.09v15.23h-1.09Z" fill="#eb5d3e"/><path d="M320.82,251.09h-1.28v-15.42h1.28v15.42Zm-1.09-.19h.91v-15.05h-.91v15.05Z" fill="#eb5d3e"/></g><g><path d="M327.99,237.58c-.28-.28-.28-.81,0-1.09,.7-.79,1.88,.44,1.11,1.09-.28,.28-.79,.28-1.11,0Zm.02,13.42v-11.01h1.09v11.01h-1.09Z" fill="#eb5d3e"/><path d="M329.2,251.09h-1.28v-11.2h1.28v11.2Zm-1.09-.19h.91v-10.83h-.91v10.83Zm.46-13.02c-.22,0-.45-.08-.64-.24h0c-.32-.33-.32-.91,0-1.23,.21-.24,.49-.33,.79-.26,.34,.09,.63,.38,.71,.73,.07,.29-.03,.56-.26,.76-.16,.16-.37,.24-.6,.24Zm-.51-.38c.29,.25,.74,.25,.98,0,.24-.2,.24-.43,.21-.58-.06-.27-.31-.52-.58-.58-.15-.04-.39-.04-.61,.2-.25,.25-.25,.71,0,.96Z" fill="#eb5d3e"/></g><g><path d="M344.25,240.46c.81,.5,1.33,1.09,1.57,1.81v-6.51h1.09v15.23h-1.09v-2.29c-.24,.72-.76,1.33-1.57,1.84-.79,.5-1.73,.74-2.8,.74-1.55,0-2.89-.55-3.96-1.66s-1.59-2.49-1.59-4.13,.52-3.02,1.59-4.13,2.4-1.66,3.96-1.66c1.07,0,2.01,.26,2.8,.77Zm-5.99,8.43c.85,.9,1.92,1.36,3.19,1.36s2.36-.44,3.21-1.33c.85-.89,1.29-2.05,1.29-3.43s-.44-2.51-1.29-3.41-1.92-1.35-3.21-1.35-2.34,.46-3.19,1.38c-.85,.92-1.27,2.05-1.27,3.39s.42,2.49,1.27,3.41Z" fill="#eb5d3e"/><path d="M341.45,251.37c-1.59,0-2.95-.57-4.02-1.69-1.08-1.12-1.62-2.53-1.62-4.19s.54-3.08,1.62-4.2c1.08-1.12,2.43-1.69,4.02-1.69,1.08,0,2.04,.26,2.85,.78,.67,.42,1.14,.89,1.43,1.43v-6.15h1.28v15.42h-1.28v-1.93c-.29,.56-.77,1.04-1.43,1.46-.79,.5-1.74,.76-2.85,.76Zm0-11.58c-1.54,0-2.85,.55-3.89,1.63-1.04,1.09-1.57,2.45-1.57,4.07s.53,2.98,1.57,4.07c1.04,1.08,2.35,1.63,3.89,1.63,1.07,0,1.99-.25,2.75-.73,.79-.49,1.3-1.09,1.53-1.79l.18-.55v2.78h.91v-15.05h-.91v7l-.18-.55c-.23-.69-.73-1.26-1.53-1.76h0c-.78-.5-1.7-.75-2.75-.75Zm0,10.56c-1.29,0-2.38-.47-3.26-1.39h0c-.86-.92-1.29-2.09-1.29-3.47s.43-2.53,1.29-3.45c.87-.93,1.96-1.41,3.26-1.41s2.41,.47,3.28,1.38c.87,.92,1.31,2.09,1.31,3.47s-.44,2.58-1.31,3.49c-.86,.91-1.97,1.36-3.28,1.36Zm-3.12-1.51c.84,.88,1.89,1.33,3.12,1.33s2.32-.44,3.15-1.31c.84-.88,1.26-2.01,1.26-3.37s-.43-2.46-1.26-3.35c-.84-.88-1.9-1.33-3.15-1.33s-2.29,.45-3.12,1.35c-.83,.89-1.24,2.01-1.24,3.32s.42,2.46,1.24,3.34h0Z" fill="#eb5d3e"/></g><g><path d="M371.02,251.57l-4.3-11.58h1.11l3.19,8.74,3.52-9.29,3.5,9.29,3.21-8.74h1.11l-4.31,11.58-3.52-9.29-3.52,9.29Z" fill="#eb5d3e"/><path d="M378.06,251.83l-.09-.23-3.43-9.06-3.52,9.29-.09-.23-4.35-11.71h1.32l3.13,8.57,3.52-9.28,.09,.23,3.41,9.05,3.15-8.57h1.32l-.05,.13-4.39,11.82Zm-3.52-9.82l3.52,9.29,4.17-11.22h-.91l-3.28,8.92-.09-.24-3.41-9.06-3.52,9.29-3.25-8.92h-.91l4.17,11.22,3.52-9.29Z" fill="#eb5d3e"/></g><g><path d="M387.53,245.49c0-1.64,.55-3.02,1.66-4.13s2.49-1.66,4.13-1.66,3,.55,4.11,1.66,1.68,2.49,1.68,4.13-.57,3.02-1.68,4.13-2.47,1.66-4.11,1.66-3.02-.55-4.13-1.66-1.66-2.49-1.66-4.13Zm1.09,0c0,1.35,.44,2.49,1.33,3.41,.9,.9,2.03,1.36,3.37,1.36s2.45-.46,3.34-1.36c.9-.92,1.36-2.05,1.36-3.41s-.46-2.49-1.36-3.39c-.89-.92-2.01-1.38-3.34-1.38s-2.47,.46-3.37,1.38c-.89,.9-1.33,2.03-1.33,3.39Z" fill="#eb5d3e"/><path d="M393.32,251.37c-1.66,0-3.08-.57-4.2-1.69s-1.69-2.53-1.69-4.2,.57-3.08,1.69-4.2,2.53-1.69,4.2-1.69,3.04,.55,4.18,1.69,1.71,2.55,1.71,4.2-.58,3.06-1.71,4.2-2.5,1.69-4.18,1.69Zm0-11.58c-1.61,0-2.98,.55-4.06,1.63s-1.63,2.45-1.63,4.07,.55,2.98,1.63,4.06,2.45,1.63,4.06,1.63,2.94-.54,4.04-1.63c1.1-1.1,1.66-2.47,1.66-4.06s-.56-2.97-1.66-4.07c-1.1-1.1-2.42-1.63-4.04-1.63Zm0,10.56c-1.36,0-2.51-.47-3.43-1.38-.9-.92-1.36-2.09-1.36-3.47s.46-2.55,1.36-3.45c.91-.93,2.06-1.4,3.43-1.4s2.5,.47,3.41,1.4c.92,.92,1.38,2.08,1.38,3.45s-.47,2.54-1.38,3.47c-.92,.92-2.07,1.38-3.41,1.38Zm0-9.53c-1.32,0-2.43,.45-3.3,1.35-.87,.87-1.31,1.99-1.31,3.32s.44,2.45,1.31,3.34c.88,.88,1.99,1.33,3.3,1.33s2.4-.45,3.28-1.33c.88-.9,1.33-2.03,1.33-3.34s-.45-2.44-1.33-3.32c-.87-.89-1.97-1.35-3.28-1.35Z" fill="#eb5d3e"/></g><g><path d="M405.85,251v-11.01h1.09v2.21c.55-1.59,1.79-2.38,3.74-2.38,.24,0,.41,0,.52,.02v1.14c-.17-.02-.41-.04-.7-.04-1.16,0-2.03,.39-2.65,1.16s-.92,1.73-.92,2.89v6.03h-1.09Z" fill="#eb5d3e"/><path d="M407.04,251.09h-1.28v-11.2h1.28v1.82c.63-1.32,1.85-1.99,3.64-1.99,.25,0,.42,0,.54,.02h.08v1.33h-.1c-.23-.04-.46-.06-.69-.06-1.11,0-1.97,.38-2.57,1.12-.6,.74-.9,1.7-.9,2.83v6.12Zm-1.09-.19h.91v-5.94c0-1.17,.32-2.17,.94-2.94,.63-.79,1.55-1.19,2.72-1.19,.2,0,.4,.01,.6,.03v-.95c-.1,0-.25,0-.43,0-1.92,0-3.11,.76-3.65,2.32l-.18,.53v-2.68h-.91v10.83Z" fill="#eb5d3e"/></g><g><path d="M417.95,251v-15.23h1.09v9.14l4.94-4.92h1.38l-5.22,5.2,5.73,5.81h-1.4l-5.42-5.46v5.46h-1.09Z" fill="#eb5d3e"/><path d="M426.09,251.09h-1.66l-.03-.03-5.26-5.3v5.33h-1.28v-15.42h1.28v9l4.81-4.79h1.64l-.16,.16-5.16,5.14,5.82,5.91Zm-1.58-.19h1.14l-5.63-5.72,.07-.07,5.06-5.04h-1.11l-5.07,5.05v-9.27h-.91v15.05h.91v-5.6l.16,.16,5.39,5.43Z" fill="#eb5d3e"/></g><g><path d="M431.41,248.46c.9,1.16,2.14,1.75,3.72,1.75,1.66,0,2.62-.74,2.62-1.94,0-.68-.18-1.14-.81-1.6-.31-.24-.57-.44-.81-.55-.22-.13-.61-.35-1.2-.63-2.03-1.03-2.89-1.73-2.89-3.1,0-1.64,1.25-2.69,3.19-2.69,.98,0,1.79,.26,2.43,.77v1.16c-.63-.59-1.42-.9-2.34-.9-1.4,0-2.18,.61-2.18,1.66,0,.81,.5,1.24,1.81,1.92l.79,.41c.39,.2,.66,.35,.76,.42,.13,.07,.35,.17,.63,.37,.31,.17,.5,.31,.61,.41,.2,.2,.7,.63,.81,.98,.15,.35,.28,.83,.28,1.35,0,.76-.31,1.44-.94,2.05-.61,.61-1.53,.92-2.78,.92-1.64,0-2.86-.48-3.72-1.46v-1.31Z" fill="#eb5d3e"/><path d="M435.12,251.33c-1.68,0-2.91-.49-3.79-1.5l-.02-.03v-1.62l.17,.22c.88,1.14,2.1,1.71,3.64,1.71s2.53-.69,2.53-1.85c0-.59-.13-1.05-.77-1.52-.28-.22-.55-.43-.79-.54-.23-.14-.62-.35-1.2-.63-1.99-1.01-2.94-1.74-2.94-3.19,0-1.69,1.29-2.78,3.28-2.78,.99,0,1.83,.26,2.48,.79l.03,.03v1.42l-.16-.15c-.62-.58-1.39-.87-2.27-.87-1.33,0-2.09,.57-2.09,1.57,0,.72,.4,1.13,1.77,1.84l.79,.41c.43,.22,.7,.38,.77,.42,.13,.07,.35,.18,.64,.38,.31,.18,.51,.31,.63,.42,.03,.03,.07,.07,.11,.1,.25,.24,.62,.6,.72,.92,.1,.24,.29,.75,.29,1.38,0,.8-.32,1.49-.97,2.12-.64,.63-1.57,.94-2.84,.94Zm-3.62-1.59c.83,.95,2.02,1.41,3.62,1.41,1.22,0,2.11-.29,2.71-.89,.61-.59,.91-1.24,.91-1.99,0-.6-.17-1.08-.28-1.32-.09-.28-.46-.64-.68-.85-.04-.04-.08-.08-.11-.11-.1-.1-.29-.23-.59-.4-.28-.2-.5-.3-.62-.37-.08-.05-.34-.21-.77-.42l-.79-.42c-1.26-.65-1.86-1.12-1.86-2.01,0-1.11,.83-1.75,2.28-1.75,.86,0,1.62,.26,2.25,.78v-.91c-.62-.48-1.4-.72-2.33-.72-1.88,0-3.1,1.02-3.1,2.6,0,1.36,.87,2.03,2.83,3.02,.59,.29,.98,.5,1.21,.64,.25,.11,.53,.33,.82,.55,.7,.51,.84,1.04,.84,1.67,0,1.28-1.02,2.04-2.72,2.04-1.5,0-2.72-.53-3.62-1.58v1.01Z" fill="#eb5d3e"/></g></g></svg>